# xmcd
#
# Track frame offsets:
#	150
#	15904
#	33116
#	51808
#	71707
#	89325
#	108848
#	125066
#	144635
#	166482
#	187659
#	207094
#	229700
#	247102
#	268619
#	283712
#	298839
#	316406
#	331898
#
# Disc length: 4665 seconds
#
# Revision: 6
# Processed by: cddbd v1.5.2PL0 Copyright (c) Steve Scherf et al.
# Submitted via: EasyCDDAExtractor 15.3.0.1
#
DISCID=12123713
DTITLE=Mariah Carey - #1 To Infinity
DYEAR=2015
DGENRE=R&B/Pop
TTITLE0=Vision Of Love
TTITLE1=Love Takes Time
TTITLE2=Emotions
TTITLE3=I'll Be There (Featuring Trey Lorenz)
TTITLE4=Dreamlover
TTITLE5=Hero
TTITLE6=Without You
TTITLE7=Endless Love (Duet With Luther Vandross)
TTITLE8=Fantasy (Bad Boy Fantasy Featuring O.D.B.)
TTITLE9=One Sweet Day (Mariah Carey and Boyz II Men)
TTITLE10=Always Be My Baby
TTITLE11=Honey
TTITLE12=My All
TTITLE13=Heartbreaker (Featuring Jay-Z)
TTITLE14=Against All Odds (Take A Look At Me Now) (Featuring Westlife)
TTITLE15=We Belong Together
TTITLE16=Don't Forget About Us
TTITLE17=Touch My Body
TTITLE18=Infinity
EXTD=
EXTT0=
EXTT1=
EXTT2=
EXTT3=
EXTT4=
EXTT5=
EXTT6=
EXTT7=
EXTT8=
EXTT9=
EXTT10=
EXTT11=
EXTT12=
EXTT13=
EXTT14=
EXTT15=
EXTT16=
EXTT17=
EXTT18=
PLAYORDER=
